<svg enable-background="new 0 0 512 512" viewBox="0 0 512 512" xmlns="http://www.w3.org/2000/svg"><path d="m495.919 16.092c-7.951-7.954-18.137-9.624-25.282-9.624-16.251 0-34.426 8.473-48.619 22.664-15.836 15.837-24.515 37.033-22.287 54.261l-385.863 372.275-.116.115c-9.722 9.798-9.689 25.71.069 35.471l6.93 6.932c4.744 4.746 11.057 7.36 17.772 7.36 6.679 0 12.977-2.6 17.738-7.323l372.356-385.945c1.83.237 3.729.358 5.657.358 16.255 0 34.425-8.466 48.602-22.646 11.537-11.536 19.28-25.515 21.801-39.362 2.561-14.061-.549-26.327-8.758-34.536z" fill="#ffd05c"/><path d="m33.065 500.574c-9.759-9.761-9.79-25.673-.07-35.471l.116-.115 385.864-372.279c-2.229-17.228 6.451-38.423 22.287-54.261 14.193-14.191 32.368-22.664 48.619-22.664 1.873 0 3.958.12 6.156.433-.041-.042-.077-.086-.118-.127-7.951-7.954-18.137-9.624-25.282-9.624-16.251 0-34.426 8.473-48.619 22.664-15.836 15.837-24.515 37.033-22.287 54.261l-385.863 372.277-.116.115c-9.722 9.798-9.689 25.71.069 35.471l6.93 6.932c4.627 4.629 10.747 7.223 17.276 7.349z" opacity=".1"/><path d="m112.27 83.392c2.228-17.228-6.453-38.422-22.29-54.262-14.191-14.189-32.366-22.662-48.617-22.662-7.145 0-17.331 1.67-25.281 9.623-16.778 16.779-10.927 49.931 13.04 73.901 14.18 14.179 32.349 22.645 48.602 22.645 1.923 0 3.816-.119 5.657-.358l140.309 145.428 34.628-33.406z" fill="#ffac61"/><path d="m233.716 238.375-140.31-145.43c-1.841.238-3.735.358-5.657.358-16.253 0-34.422-8.466-48.602-22.645-16.92-16.923-24.797-38.416-22.071-55.498-.334.306-.668.605-.995.931-16.777 16.779-10.926 49.931 13.041 73.901 14.18 14.179 32.349 22.645 48.602 22.645 1.923 0 3.816-.119 5.657-.358l140.309 145.428 34.628-33.406-5.007-4.831z" opacity=".1"/><path d="m498.215 455.751-209.99-202.598-34.465 35.723 201.9 209.268.117.118c4.739 4.698 11.025 7.286 17.7 7.286 6.713 0 13.025-2.614 17.772-7.361l6.928-6.929c4.746-4.748 7.361-11.06 7.361-17.774 0-6.678-2.601-12.976-7.323-17.733z" fill="#ffac61"/><path d="m504.622 468.104-6.928 6.929c-4.748 4.748-11.059 7.361-17.772 7.361-6.676 0-12.96-2.587-17.7-7.286l-.117-.118-193.952-201.03-14.391 14.916 201.899 209.268.117.118c4.739 4.698 11.025 7.286 17.7 7.286 6.713 0 13.025-2.614 17.772-7.361l6.928-6.929c4.746-4.748 7.361-11.06 7.361-17.774 0-1.926-.241-3.812-.662-5.647-.086.088-.168.179-.255.267z" opacity=".1"/><path d="m502.631 451.054-202.974-195.827 131.444-136.242c18.67 1.158 39.849-7.954 56.334-24.438 12.454-12.455 20.83-27.642 23.583-42.765 2.951-16.206-.793-30.5-10.541-40.248-9.75-9.75-24.044-13.494-40.25-10.542-15.122 2.753-30.31 11.128-42.764 23.582-16.484 16.485-25.586 37.681-24.437 56.335l-137.046 132.18-137.003-132.18c1.149-18.654-7.954-39.848-24.439-56.335-15.374-15.372-35.253-24.551-53.175-24.551-11.991 0-22.309 3.981-29.839 11.51-9.748 9.749-13.492 24.043-10.541 40.249 2.754 15.123 11.129 30.311 23.582 42.765 16.275 16.274 37.641 25.588 56.331 24.437l131.422 136.217-104.222 100.525c-3.203 3.089-3.293 8.189-.205 11.391 3.088 3.2 8.187 3.292 11.391.205l109.569-105.682c.161-.133.321-.267.474-.415l32.266-31.128c.124-.119.235-.248.351-.375l145.091-139.941c1.878-1.812 2.762-4.421 2.373-7.002-2.18-14.441 5.452-32.817 19.447-46.812 10.161-10.161 22.327-16.953 34.26-19.126 10.851-1.976 20.073.186 25.971 6.085 5.898 5.898 8.059 15.12 6.083 25.97-2.172 11.931-8.965 24.099-19.126 34.259-13.992 13.996-32.361 21.624-46.812 19.449-2.581-.39-5.189.494-7 2.373l-139.732 144.833c-.01.01-.019.017-.029.027l-32.267 33.447c-.005.005-.011.012-.016.018l-200.766 208.094c-6.036 5.986-15.816 5.973-21.831-.043l-6.929-6.932c-6.014-6.013-6.031-15.784-.054-21.818l79.083-75.881c3.211-3.081 3.316-8.18.236-11.39-3.079-3.211-8.179-3.316-11.39-.236l-79.15 75.943c-.04.039-.079.077-.119.116-5.963 5.965-9.247 13.895-9.248 22.328 0 8.436 3.285 16.365 9.248 22.33l6.93 6.932c6.157 6.156 14.242 9.234 22.33 9.233 8.085 0 16.174-3.077 22.33-9.233.034-.033.068-.068.102-.104l195.043-202.163 195.046 202.163c.033.035.068.069.102.104 5.963 5.963 13.894 9.247 22.328 9.247h.002c8.434 0 16.363-3.285 22.328-9.248l6.929-6.93c5.965-5.966 9.248-13.896 9.248-22.331s-3.285-16.365-9.249-22.328c-.033-.033-.069-.067-.103-.101zm-412.863-346.078c-1.53-1.586-3.627-2.463-5.796-2.463-.4 0-.802.029-1.203.09-1.611.244-3.308.366-5.044.366-13.745 0-29.36-7.407-41.767-19.814-19.858-19.858-25.829-47.439-13.041-60.228 5.612-5.613 13.129-6.79 18.446-6.79 13.744 0 29.364 7.413 41.781 19.831 13.996 13.997 21.63 32.372 19.45 46.814-.389 2.579.495 5.188 2.373 7l139.409 134.503-20.461 19.735zm401.574 379.446-6.928 6.93c-2.922 2.922-6.806 4.53-10.937 4.53 0 0 0 0-.001 0-4.111 0-7.976-1.592-10.892-4.483l-195.392-202.522 21.278-22.055 202.917 195.773c2.893 2.915 4.484 6.78 4.484 10.889 0 4.132-1.608 8.016-4.529 10.938z"/></svg>